<mxfile host="app.diagrams.net" agent="Mozilla/5.0 (Windows NT 10.0; Win64; x64) AppleWebKit/537.36 (KHTML, like Gecko) Chrome/106.0.0.0 Safari/537.36 Edg/106.0.1370.37" version="24.7.17">
  <diagram id="prtHgNgQTEPvFCAcTncT" name="Page-1">
    <mxGraphModel dx="2220" dy="875" grid="1" gridSize="10" guides="1" tooltips="1" connect="1" arrows="1" fold="1" page="1" pageScale="1" pageWidth="827" pageHeight="1169" math="0" shadow="0">
      <root>
        <mxCell id="0" />
        <mxCell id="1" parent="0" />
        <mxCell id="AecWk1YuMGyxgB1hptTf-1" value="Stocktion Organizational Hierarchy" style="swimlane;whiteSpace=wrap;html=1;" vertex="1" parent="1">
          <mxGeometry x="-120" y="40" width="1250" height="550" as="geometry">
            <mxRectangle x="-120" y="40" width="230" height="30" as="alternateBounds" />
          </mxGeometry>
        </mxCell>
        <mxCell id="AecWk1YuMGyxgB1hptTf-5" style="edgeStyle=orthogonalEdgeStyle;rounded=0;orthogonalLoop=1;jettySize=auto;html=1;entryX=0.5;entryY=0;entryDx=0;entryDy=0;" edge="1" parent="AecWk1YuMGyxgB1hptTf-1" source="AecWk1YuMGyxgB1hptTf-2" target="AecWk1YuMGyxgB1hptTf-3">
          <mxGeometry relative="1" as="geometry">
            <Array as="points">
              <mxPoint x="625" y="140" />
              <mxPoint x="275" y="140" />
            </Array>
          </mxGeometry>
        </mxCell>
        <mxCell id="AecWk1YuMGyxgB1hptTf-2" value="&lt;b&gt;Project Manager + Scrum Master&lt;/b&gt;&lt;div&gt;&lt;br&gt;&lt;/div&gt;&lt;div&gt;Changes Monthly&lt;/div&gt;" style="rounded=0;whiteSpace=wrap;html=1;" vertex="1" parent="AecWk1YuMGyxgB1hptTf-1">
          <mxGeometry x="510" y="40" width="230" height="70" as="geometry" />
        </mxCell>
        <mxCell id="AecWk1YuMGyxgB1hptTf-16" style="edgeStyle=orthogonalEdgeStyle;rounded=0;orthogonalLoop=1;jettySize=auto;html=1;entryX=0.5;entryY=0;entryDx=0;entryDy=0;" edge="1" parent="AecWk1YuMGyxgB1hptTf-1" source="AecWk1YuMGyxgB1hptTf-3" target="AecWk1YuMGyxgB1hptTf-7">
          <mxGeometry relative="1" as="geometry" />
        </mxCell>
        <mxCell id="AecWk1YuMGyxgB1hptTf-17" style="edgeStyle=orthogonalEdgeStyle;rounded=0;orthogonalLoop=1;jettySize=auto;html=1;entryX=0.5;entryY=0;entryDx=0;entryDy=0;" edge="1" parent="AecWk1YuMGyxgB1hptTf-1" source="AecWk1YuMGyxgB1hptTf-3" target="AecWk1YuMGyxgB1hptTf-8">
          <mxGeometry relative="1" as="geometry" />
        </mxCell>
        <mxCell id="AecWk1YuMGyxgB1hptTf-3" value="&lt;b&gt;Product Owner&lt;/b&gt;&lt;div&gt;&lt;br&gt;&lt;/div&gt;&lt;div&gt;Cüneyt SEVGİ&lt;/div&gt;" style="rounded=0;whiteSpace=wrap;html=1;" vertex="1" parent="AecWk1YuMGyxgB1hptTf-1">
          <mxGeometry x="175" y="180" width="200" height="80" as="geometry" />
        </mxCell>
        <mxCell id="AecWk1YuMGyxgB1hptTf-18" style="edgeStyle=orthogonalEdgeStyle;rounded=0;orthogonalLoop=1;jettySize=auto;html=1;" edge="1" parent="AecWk1YuMGyxgB1hptTf-1" source="AecWk1YuMGyxgB1hptTf-7" target="AecWk1YuMGyxgB1hptTf-9">
          <mxGeometry relative="1" as="geometry" />
        </mxCell>
        <mxCell id="AecWk1YuMGyxgB1hptTf-7" value="&lt;b&gt;QA Lead&lt;/b&gt;&lt;br&gt;&lt;div&gt;&lt;br&gt;&lt;/div&gt;&lt;div&gt;Bertan ÖZER&lt;/div&gt;" style="rounded=0;whiteSpace=wrap;html=1;" vertex="1" parent="AecWk1YuMGyxgB1hptTf-1">
          <mxGeometry x="60" y="310" width="200" height="80" as="geometry" />
        </mxCell>
        <mxCell id="AecWk1YuMGyxgB1hptTf-8" value="&lt;b&gt;UI/UX Lead Designers&lt;/b&gt;&lt;br&gt;&lt;div&gt;&lt;br&gt;&lt;/div&gt;&lt;div&gt;Ayşe Özge ERKAN&lt;/div&gt;&lt;div&gt;Damla KÖKLÜ&lt;/div&gt;" style="rounded=0;whiteSpace=wrap;html=1;" vertex="1" parent="AecWk1YuMGyxgB1hptTf-1">
          <mxGeometry x="290" y="310" width="200" height="80" as="geometry" />
        </mxCell>
        <mxCell id="AecWk1YuMGyxgB1hptTf-9" value="&lt;b&gt;Testers&lt;/b&gt;&lt;br&gt;&lt;div&gt;&lt;br&gt;&lt;/div&gt;&lt;div&gt;Whole Team&lt;/div&gt;" style="rounded=0;whiteSpace=wrap;html=1;" vertex="1" parent="AecWk1YuMGyxgB1hptTf-1">
          <mxGeometry x="60" y="440" width="200" height="80" as="geometry" />
        </mxCell>
        <mxCell id="AecWk1YuMGyxgB1hptTf-10" value="&lt;b&gt;DevOps Lead&lt;/b&gt;&lt;br&gt;&lt;div&gt;&lt;br&gt;&lt;/div&gt;&lt;div&gt;Ahmet Oğuz ERGİN&lt;/div&gt;" style="rounded=0;whiteSpace=wrap;html=1;" vertex="1" parent="AecWk1YuMGyxgB1hptTf-1">
          <mxGeometry x="550" y="310" width="200" height="80" as="geometry" />
        </mxCell>
        <mxCell id="AecWk1YuMGyxgB1hptTf-11" value="&lt;b&gt;Development Team&lt;/b&gt;&lt;br&gt;&lt;div&gt;&lt;br&gt;&lt;/div&gt;&lt;div&gt;Whole Team&lt;/div&gt;" style="rounded=0;whiteSpace=wrap;html=1;" vertex="1" parent="1">
          <mxGeometry x="660" y="350" width="200" height="80" as="geometry" />
        </mxCell>
        <mxCell id="AecWk1YuMGyxgB1hptTf-12" value="&lt;b&gt;Testers&lt;/b&gt;&lt;br&gt;&lt;div&gt;&lt;br&gt;&lt;/div&gt;&lt;div&gt;Whole Team&lt;/div&gt;" style="rounded=0;whiteSpace=wrap;html=1;" vertex="1" parent="1">
          <mxGeometry x="890" y="350" width="200" height="80" as="geometry" />
        </mxCell>
        <mxCell id="AecWk1YuMGyxgB1hptTf-13" style="edgeStyle=orthogonalEdgeStyle;rounded=0;orthogonalLoop=1;jettySize=auto;html=1;entryX=0.5;entryY=0;entryDx=0;entryDy=0;" edge="1" parent="1" source="AecWk1YuMGyxgB1hptTf-4" target="AecWk1YuMGyxgB1hptTf-10">
          <mxGeometry relative="1" as="geometry">
            <Array as="points">
              <mxPoint x="760" y="320" />
              <mxPoint x="530" y="320" />
            </Array>
          </mxGeometry>
        </mxCell>
        <mxCell id="AecWk1YuMGyxgB1hptTf-14" style="edgeStyle=orthogonalEdgeStyle;rounded=0;orthogonalLoop=1;jettySize=auto;html=1;entryX=0.5;entryY=0;entryDx=0;entryDy=0;" edge="1" parent="1" source="AecWk1YuMGyxgB1hptTf-4" target="AecWk1YuMGyxgB1hptTf-11">
          <mxGeometry relative="1" as="geometry" />
        </mxCell>
        <mxCell id="AecWk1YuMGyxgB1hptTf-15" style="edgeStyle=orthogonalEdgeStyle;rounded=0;orthogonalLoop=1;jettySize=auto;html=1;entryX=0.5;entryY=0;entryDx=0;entryDy=0;" edge="1" parent="1" source="AecWk1YuMGyxgB1hptTf-4" target="AecWk1YuMGyxgB1hptTf-12">
          <mxGeometry relative="1" as="geometry">
            <Array as="points">
              <mxPoint x="760" y="320" />
              <mxPoint x="990" y="320" />
            </Array>
          </mxGeometry>
        </mxCell>
        <mxCell id="AecWk1YuMGyxgB1hptTf-4" value="&lt;b&gt;Lead Developer&lt;/b&gt;&lt;div&gt;&lt;br&gt;&lt;/div&gt;&lt;div&gt;Göktuğ YEŞİLYURT&lt;/div&gt;" style="rounded=0;whiteSpace=wrap;html=1;" vertex="1" parent="1">
          <mxGeometry x="660" y="220" width="200" height="80" as="geometry" />
        </mxCell>
        <mxCell id="AecWk1YuMGyxgB1hptTf-6" style="edgeStyle=orthogonalEdgeStyle;rounded=0;orthogonalLoop=1;jettySize=auto;html=1;entryX=0.5;entryY=0;entryDx=0;entryDy=0;" edge="1" parent="1" source="AecWk1YuMGyxgB1hptTf-2" target="AecWk1YuMGyxgB1hptTf-4">
          <mxGeometry relative="1" as="geometry">
            <Array as="points">
              <mxPoint x="505" y="180" />
              <mxPoint x="760" y="180" />
            </Array>
          </mxGeometry>
        </mxCell>
      </root>
    </mxGraphModel>
  </diagram>
</mxfile>
